<mxfile host="Electron" modified="2025-05-12T10:49:14.095Z" agent="Mozilla/5.0 (Windows NT 10.0; Win64; x64) AppleWebKit/537.36 (KHTML, like Gecko) draw.io/24.4.13 Chrome/124.0.6367.207 Electron/30.0.6 Safari/537.36" etag="CSDe9X-HCh8S8kKkImUb" version="24.4.13" type="device">
  <diagram name="Page-1" id="wFVqzXOpDuXM0-0nE_3v">
    <mxGraphModel dx="2607" dy="1535" grid="1" gridSize="10" guides="1" tooltips="1" connect="1" arrows="1" fold="1" page="1" pageScale="1" pageWidth="850" pageHeight="1100" math="0" shadow="0">
      <root>
        <mxCell id="0" />
        <mxCell id="1" parent="0" />
        <mxCell id="Vbs_sjsIZ8XwlTUMkCxN-2" value="" style="whiteSpace=wrap;html=1;aspect=fixed;" vertex="1" parent="1">
          <mxGeometry x="50" y="60" width="1260" height="1260" as="geometry" />
        </mxCell>
        <mxCell id="Vbs_sjsIZ8XwlTUMkCxN-16" style="edgeStyle=orthogonalEdgeStyle;rounded=0;orthogonalLoop=1;jettySize=auto;html=1;" edge="1" parent="1" source="Vbs_sjsIZ8XwlTUMkCxN-3" target="Vbs_sjsIZ8XwlTUMkCxN-6">
          <mxGeometry relative="1" as="geometry" />
        </mxCell>
        <mxCell id="Vbs_sjsIZ8XwlTUMkCxN-17" style="edgeStyle=orthogonalEdgeStyle;rounded=0;orthogonalLoop=1;jettySize=auto;html=1;entryX=0;entryY=0.5;entryDx=0;entryDy=0;" edge="1" parent="1" source="Vbs_sjsIZ8XwlTUMkCxN-3" target="Vbs_sjsIZ8XwlTUMkCxN-7">
          <mxGeometry relative="1" as="geometry" />
        </mxCell>
        <mxCell id="Vbs_sjsIZ8XwlTUMkCxN-18" style="edgeStyle=orthogonalEdgeStyle;rounded=0;orthogonalLoop=1;jettySize=auto;html=1;entryX=0;entryY=0.5;entryDx=0;entryDy=0;" edge="1" parent="1" source="Vbs_sjsIZ8XwlTUMkCxN-3" target="Vbs_sjsIZ8XwlTUMkCxN-8">
          <mxGeometry relative="1" as="geometry" />
        </mxCell>
        <mxCell id="Vbs_sjsIZ8XwlTUMkCxN-20" style="edgeStyle=orthogonalEdgeStyle;rounded=0;orthogonalLoop=1;jettySize=auto;html=1;entryX=0;entryY=0.5;entryDx=0;entryDy=0;" edge="1" parent="1" source="Vbs_sjsIZ8XwlTUMkCxN-3" target="Vbs_sjsIZ8XwlTUMkCxN-10">
          <mxGeometry relative="1" as="geometry" />
        </mxCell>
        <mxCell id="Vbs_sjsIZ8XwlTUMkCxN-23" style="edgeStyle=orthogonalEdgeStyle;rounded=0;orthogonalLoop=1;jettySize=auto;html=1;entryX=0;entryY=0.5;entryDx=0;entryDy=0;" edge="1" parent="1" source="Vbs_sjsIZ8XwlTUMkCxN-3" target="Vbs_sjsIZ8XwlTUMkCxN-9">
          <mxGeometry relative="1" as="geometry" />
        </mxCell>
        <mxCell id="Vbs_sjsIZ8XwlTUMkCxN-24" style="edgeStyle=orthogonalEdgeStyle;rounded=0;orthogonalLoop=1;jettySize=auto;html=1;entryX=0;entryY=0.5;entryDx=0;entryDy=0;" edge="1" parent="1" source="Vbs_sjsIZ8XwlTUMkCxN-3" target="Vbs_sjsIZ8XwlTUMkCxN-22">
          <mxGeometry relative="1" as="geometry" />
        </mxCell>
        <mxCell id="Vbs_sjsIZ8XwlTUMkCxN-48" style="edgeStyle=orthogonalEdgeStyle;rounded=0;orthogonalLoop=1;jettySize=auto;html=1;entryX=0;entryY=0.5;entryDx=0;entryDy=0;" edge="1" parent="1" source="Vbs_sjsIZ8XwlTUMkCxN-3" target="Vbs_sjsIZ8XwlTUMkCxN-29">
          <mxGeometry relative="1" as="geometry" />
        </mxCell>
        <mxCell id="Vbs_sjsIZ8XwlTUMkCxN-3" value="کاربر&amp;nbsp;" style="shape=umlActor;verticalLabelPosition=bottom;verticalAlign=top;html=1;" vertex="1" parent="1">
          <mxGeometry x="20" y="100" width="30" height="60" as="geometry" />
        </mxCell>
        <mxCell id="Vbs_sjsIZ8XwlTUMkCxN-40" style="edgeStyle=orthogonalEdgeStyle;rounded=0;orthogonalLoop=1;jettySize=auto;html=1;" edge="1" parent="1" source="Vbs_sjsIZ8XwlTUMkCxN-4" target="Vbs_sjsIZ8XwlTUMkCxN-11">
          <mxGeometry relative="1" as="geometry" />
        </mxCell>
        <mxCell id="Vbs_sjsIZ8XwlTUMkCxN-41" style="edgeStyle=orthogonalEdgeStyle;rounded=0;orthogonalLoop=1;jettySize=auto;html=1;entryX=1;entryY=0.5;entryDx=0;entryDy=0;" edge="1" parent="1" source="Vbs_sjsIZ8XwlTUMkCxN-4" target="Vbs_sjsIZ8XwlTUMkCxN-12">
          <mxGeometry relative="1" as="geometry" />
        </mxCell>
        <mxCell id="Vbs_sjsIZ8XwlTUMkCxN-42" style="edgeStyle=orthogonalEdgeStyle;rounded=0;orthogonalLoop=1;jettySize=auto;html=1;entryX=1;entryY=0.5;entryDx=0;entryDy=0;" edge="1" parent="1" source="Vbs_sjsIZ8XwlTUMkCxN-4" target="Vbs_sjsIZ8XwlTUMkCxN-13">
          <mxGeometry relative="1" as="geometry" />
        </mxCell>
        <mxCell id="Vbs_sjsIZ8XwlTUMkCxN-43" style="edgeStyle=orthogonalEdgeStyle;rounded=0;orthogonalLoop=1;jettySize=auto;html=1;entryX=1;entryY=0.5;entryDx=0;entryDy=0;" edge="1" parent="1" source="Vbs_sjsIZ8XwlTUMkCxN-4" target="Vbs_sjsIZ8XwlTUMkCxN-14">
          <mxGeometry relative="1" as="geometry" />
        </mxCell>
        <mxCell id="Vbs_sjsIZ8XwlTUMkCxN-44" style="edgeStyle=orthogonalEdgeStyle;rounded=0;orthogonalLoop=1;jettySize=auto;html=1;entryX=1;entryY=0.5;entryDx=0;entryDy=0;" edge="1" parent="1" source="Vbs_sjsIZ8XwlTUMkCxN-4" target="Vbs_sjsIZ8XwlTUMkCxN-15">
          <mxGeometry relative="1" as="geometry" />
        </mxCell>
        <mxCell id="Vbs_sjsIZ8XwlTUMkCxN-4" value="مدبر&amp;nbsp;" style="shape=umlActor;verticalLabelPosition=bottom;verticalAlign=top;html=1;" vertex="1" parent="1">
          <mxGeometry x="1370" y="95" width="30" height="60" as="geometry" />
        </mxCell>
        <mxCell id="Vbs_sjsIZ8XwlTUMkCxN-45" style="edgeStyle=orthogonalEdgeStyle;rounded=0;orthogonalLoop=1;jettySize=auto;html=1;entryX=1;entryY=0.5;entryDx=0;entryDy=0;" edge="1" parent="1" source="Vbs_sjsIZ8XwlTUMkCxN-5" target="Vbs_sjsIZ8XwlTUMkCxN-27">
          <mxGeometry relative="1" as="geometry" />
        </mxCell>
        <mxCell id="Vbs_sjsIZ8XwlTUMkCxN-46" style="edgeStyle=orthogonalEdgeStyle;rounded=0;orthogonalLoop=1;jettySize=auto;html=1;entryX=1;entryY=0.5;entryDx=0;entryDy=0;" edge="1" parent="1" source="Vbs_sjsIZ8XwlTUMkCxN-5" target="Vbs_sjsIZ8XwlTUMkCxN-28">
          <mxGeometry relative="1" as="geometry" />
        </mxCell>
        <mxCell id="Vbs_sjsIZ8XwlTUMkCxN-5" value="ادمین&amp;nbsp;" style="shape=umlActor;verticalLabelPosition=bottom;verticalAlign=top;html=1;" vertex="1" parent="1">
          <mxGeometry x="1370" y="925" width="30" height="60" as="geometry" />
        </mxCell>
        <mxCell id="Vbs_sjsIZ8XwlTUMkCxN-6" value="ثبت نام&amp;nbsp;" style="ellipse;whiteSpace=wrap;html=1;" vertex="1" parent="1">
          <mxGeometry x="170" y="95" width="140" height="70" as="geometry" />
        </mxCell>
        <mxCell id="Vbs_sjsIZ8XwlTUMkCxN-7" value="ورود کاربر&amp;nbsp;" style="ellipse;whiteSpace=wrap;html=1;" vertex="1" parent="1">
          <mxGeometry x="170" y="250" width="140" height="70" as="geometry" />
        </mxCell>
        <mxCell id="Vbs_sjsIZ8XwlTUMkCxN-8" value="مرور محصولات&amp;nbsp;" style="ellipse;whiteSpace=wrap;html=1;" vertex="1" parent="1">
          <mxGeometry x="170" y="430" width="140" height="70" as="geometry" />
        </mxCell>
        <mxCell id="Vbs_sjsIZ8XwlTUMkCxN-9" value="اضافه کردن به سبد خرید&amp;nbsp;" style="ellipse;whiteSpace=wrap;html=1;" vertex="1" parent="1">
          <mxGeometry x="170" y="610" width="140" height="70" as="geometry" />
        </mxCell>
        <mxCell id="Vbs_sjsIZ8XwlTUMkCxN-10" value="ثبت سفارش&amp;nbsp;" style="ellipse;whiteSpace=wrap;html=1;" vertex="1" parent="1">
          <mxGeometry x="170" y="750" width="140" height="70" as="geometry" />
        </mxCell>
        <mxCell id="Vbs_sjsIZ8XwlTUMkCxN-11" value="مدیریت محصولات&amp;nbsp;" style="ellipse;whiteSpace=wrap;html=1;" vertex="1" parent="1">
          <mxGeometry x="1090" y="85" width="140" height="70" as="geometry" />
        </mxCell>
        <mxCell id="Vbs_sjsIZ8XwlTUMkCxN-12" value="مدیریت سفارشات&amp;nbsp;" style="ellipse;whiteSpace=wrap;html=1;" vertex="1" parent="1">
          <mxGeometry x="1090" y="190" width="140" height="70" as="geometry" />
        </mxCell>
        <mxCell id="Vbs_sjsIZ8XwlTUMkCxN-13" value="مشاهد گزارشات&amp;nbsp; فروش&amp;nbsp;" style="ellipse;whiteSpace=wrap;html=1;" vertex="1" parent="1">
          <mxGeometry x="1090" y="310" width="140" height="70" as="geometry" />
        </mxCell>
        <mxCell id="Vbs_sjsIZ8XwlTUMkCxN-14" value="ارسال اطلاعیه ها&amp;nbsp;" style="ellipse;whiteSpace=wrap;html=1;" vertex="1" parent="1">
          <mxGeometry x="1090" y="450" width="140" height="70" as="geometry" />
        </mxCell>
        <mxCell id="Vbs_sjsIZ8XwlTUMkCxN-15" value="مدیریت تخفیف ها" style="ellipse;whiteSpace=wrap;html=1;" vertex="1" parent="1">
          <mxGeometry x="1090" y="640" width="140" height="70" as="geometry" />
        </mxCell>
        <mxCell id="Vbs_sjsIZ8XwlTUMkCxN-21" value="پیگیری سفارش&amp;nbsp;" style="ellipse;whiteSpace=wrap;html=1;" vertex="1" parent="1">
          <mxGeometry x="170" y="860" width="140" height="70" as="geometry" />
        </mxCell>
        <mxCell id="Vbs_sjsIZ8XwlTUMkCxN-22" value="دریافت تخفیف&amp;nbsp;" style="ellipse;whiteSpace=wrap;html=1;" vertex="1" parent="1">
          <mxGeometry x="160" y="1000" width="140" height="70" as="geometry" />
        </mxCell>
        <mxCell id="Vbs_sjsIZ8XwlTUMkCxN-27" value="برسی موجودی محصولات&amp;nbsp;" style="ellipse;whiteSpace=wrap;html=1;" vertex="1" parent="1">
          <mxGeometry x="1090" y="800" width="140" height="70" as="geometry" />
        </mxCell>
        <mxCell id="Vbs_sjsIZ8XwlTUMkCxN-28" value="بروز رسانی موجودی&amp;nbsp;" style="ellipse;whiteSpace=wrap;html=1;" vertex="1" parent="1">
          <mxGeometry x="1090" y="970" width="140" height="70" as="geometry" />
        </mxCell>
        <mxCell id="Vbs_sjsIZ8XwlTUMkCxN-29" value="پرداخت&amp;nbsp;" style="ellipse;whiteSpace=wrap;html=1;" vertex="1" parent="1">
          <mxGeometry x="160" y="1100" width="140" height="70" as="geometry" />
        </mxCell>
        <mxCell id="Vbs_sjsIZ8XwlTUMkCxN-39" style="edgeStyle=orthogonalEdgeStyle;rounded=0;orthogonalLoop=1;jettySize=auto;html=1;exitX=0.5;exitY=0.5;exitDx=0;exitDy=0;exitPerimeter=0;entryX=1;entryY=0.3333333333333333;entryDx=0;entryDy=0;entryPerimeter=0;" edge="1" parent="1" source="Vbs_sjsIZ8XwlTUMkCxN-5" target="Vbs_sjsIZ8XwlTUMkCxN-5">
          <mxGeometry relative="1" as="geometry" />
        </mxCell>
      </root>
    </mxGraphModel>
  </diagram>
</mxfile>
